<svg xmlns="http://www.w3.org/2000/svg" version="1.1" xmlns:xlink="http://www.w3.org/1999/xlink" xmlns:svgjs="http://svgjs.com/svgjs" width="2040" height="286" preserveAspectRatio="none" viewBox="0 0 2040 286">
    <g mask="url(&quot;#SvgjsMask1086&quot;)" fill="none">
        <path d="M -245.6482933722217,102 C -177.65,111.8 -41.65,157.2 94.35170662777831,151 C 230.35,144.8 298.35,67.2 434.3517066277783,71 C 570.35,74.8 638.35,158.2 774.3517066277783,170 C 910.35,181.8 978.35,127.4 1114.3517066277784,130 C 1250.35,132.6 1318.35,192.4 1454.3517066277784,183 C 1590.35,173.6 1658.35,88.6 1794.3517066277784,83 C 1930.35,77.4 2085.22,152.8 2134.351706627778,155 C 2183.48,157.2 2058.87,106.2 2040,94" stroke="rgba(134, 172, 62, 0.65)" stroke-width="2"></path>
        <path d="M -445.3468063255259,165 C -377.35,149.8 -241.35,78.4 -105.34680632552592,89 C 30.65,99.6 98.65,220.8 234.6531936744741,218 C 370.65,215.2 438.65,82.2 574.6531936744741,75 C 710.65,67.8 778.65,169.2 914.6531936744741,182 C 1050.65,194.8 1118.65,145.8 1254.653193674474,139 C 1390.65,132.2 1458.65,162 1594.653193674474,148 C 1730.65,134 1845.58,66.2 1934.653193674474,69 C 2023.72,71.8 2018.93,143.4 2040,162" stroke="rgba(134, 172, 62, 0.65)" stroke-width="2"></path>
        <path d="M -297.38381775864343,133 C -229.38,152.4 -93.38,231 42.61618224135657,230 C 178.62,229 246.62,130.2 382.61618224135657,128 C 518.62,125.8 586.62,220.8 722.6161822413566,219 C 858.62,217.2 926.62,131.6 1062.6161822413565,119 C 1198.62,106.4 1266.62,161.8 1402.6161822413565,156 C 1538.62,150.2 1606.62,75.2 1742.6161822413565,90 C 1878.62,104.8 2023.14,233.6 2082.6161822413565,230 C 2142.09,226.4 2048.52,103.6 2040,72" stroke="rgba(134, 172, 62, 0.65)" stroke-width="2"></path>
    </g>
    <defs>
        <mask id="SvgjsMask1086">
            <rect width="2040" height="286" fill="#ffffff"></rect>
        </mask>
    </defs>
</svg>